<svg width="60" height="60" viewBox="0 0 60 60" fill="none" xmlns="http://www.w3.org/2000/svg">
<path d="M30 60C46.5685 60 60 46.5685 60 30C60 13.4315 46.5685 0 30 0C13.4315 0 0 13.4315 0 30C0 46.5685 13.4315 60 30 60Z" fill="url(#paint0_linear_18_751)"/>
<path d="M35.2431 14.2586C35.8916 13.1268 35.5039 11.6813 34.3774 11.0299C33.2509 10.3785 31.812 10.7679 31.1636 11.8997L30.0328 13.8738L28.9018 11.8997C28.2534 10.7679 26.8144 10.3785 25.6879 11.0299C24.5614 11.6813 24.1738 13.1268 24.8222 14.2586L27.3171 18.6137L19.4254 32.3891H13.0678C11.768 32.3891 10.7143 33.4476 10.7143 34.7535C10.7143 36.0594 11.768 37.1179 13.0678 37.1179H35.2123C35.4064 36.6054 35.6109 35.7259 35.3934 34.9176C35.0666 33.7026 33.8571 32.3891 31.8304 32.3891H24.8565L35.2431 14.2586Z" fill="white"/>
<path d="M20.6494 39.7326C20.2479 39.2846 19.3483 38.5686 18.5593 38.3331C17.3565 37.9738 16.4446 38.1992 15.9845 38.3955L14.2314 41.4557C13.583 42.5874 13.9706 44.0329 15.0972 44.6844C16.2237 45.3358 17.6625 44.9464 18.3109 43.8146L20.6494 39.7326Z" fill="white"/>
<path d="M43.3489 37.1179H46.9322C48.2321 37.1179 49.2857 36.0594 49.2857 34.7535C49.2857 33.4476 48.2321 32.3891 46.9322 32.3891H40.6399L33.5518 20.0166C33.0253 20.5194 32.0158 21.8036 31.8632 23.2596C31.6671 25.1314 31.9611 26.7077 32.8438 28.2512C35.811 33.4406 38.7829 38.6276 41.7544 43.8146C42.4029 44.9464 43.8416 45.3358 44.9683 44.6844C46.0948 44.0329 46.4824 42.5874 45.834 41.4557L43.3489 37.1179Z" fill="white"/>
<defs>
<linearGradient id="paint0_linear_18_751" x1="30" y1="0" x2="30" y2="60" gradientUnits="userSpaceOnUse">
<stop stop-color="#2AC9FA"/>
<stop offset="1" stop-color="#1F65EB"/>
</linearGradient>
</defs>
</svg>
