<svg width="52" height="27" viewBox="0 0 52 27" fill="none" xmlns="http://www.w3.org/2000/svg">
<path d="M13.248 26.18C11.592 26.18 10.008 25.892 8.496 25.316C7.008 24.716 5.688 23.852 4.536 22.724C3.384 21.572 2.472 20.192 1.8 18.584C1.152 16.952 0.828 15.092 0.828 13.004C0.828 11.204 1.164 9.536 1.836 8C2.508 6.464 3.432 5.12 4.608 3.968C5.808 2.792 7.2 1.88 8.784 1.232C10.368 0.583999 12.084 0.259999 13.932 0.259999C16.236 0.259999 18.324 0.763999 20.196 1.772C22.068 2.756 23.46 4.112 24.372 5.84L19.152 9.836C18.648 8.828 17.892 8.024 16.884 7.424C15.876 6.8 14.808 6.488 13.68 6.488C12.84 6.488 12.072 6.656 11.376 6.992C10.68 7.328 10.068 7.796 9.54 8.396C9.036 8.996 8.64 9.716 8.352 10.556C8.088 11.372 7.956 12.272 7.956 13.256C7.956 14.264 8.1 15.176 8.388 15.992C8.676 16.808 9.072 17.516 9.576 18.116C10.104 18.692 10.728 19.148 11.448 19.484C12.168 19.796 12.972 19.952 13.86 19.952C14.988 19.952 16.068 19.676 17.1 19.124C18.132 18.548 19.068 17.744 19.908 16.712V23.552C17.988 25.304 15.768 26.18 13.248 26.18ZM19.548 17.432H14.832V12.392H25.344V26H19.548V17.432ZM28.8093 26V0.439999H38.6373C41.4693 0.439999 43.8333 1.016 45.7293 2.168C47.6493 3.296 49.0893 4.832 50.0493 6.776C51.0333 8.696 51.5253 10.832 51.5253 13.184C51.5253 15.776 50.9853 18.032 49.9053 19.952C48.8493 21.872 47.3493 23.36 45.4053 24.416C43.4853 25.472 41.2293 26 38.6373 26H28.8093ZM44.3973 13.184C44.3973 11.864 44.1693 10.712 43.7133 9.728C43.2573 8.72 42.5973 7.94 41.7333 7.388C40.8693 6.836 39.8373 6.56 38.6373 6.56H35.8293V19.88H38.6373C39.8613 19.88 40.8933 19.592 41.7333 19.016C42.5973 18.44 43.2573 17.648 43.7133 16.64C44.1693 15.608 44.3973 14.456 44.3973 13.184Z" fill="white"/>
</svg>
