<svg width="60" height="60" viewBox="0 0 60 60" fill="none" xmlns="http://www.w3.org/2000/svg">
<path d="M32.1429 27L41.1429 18L6.21429 0.4C6 0.2 5.57143 0.2 4.92857 0L32.1429 27Z" fill="#00F076"/>
<path d="M45 40L57.6429 33.6C59.1429 32.8 60 31.6 60 30C60 28.4 59.1429 27 57.6429 26.4L45 20L34.9286 30L45 40Z" fill="#FFC900"/>
<path d="M0.857143 1.8C0.214286 2.4 0 3.2 0 4V56C0 56.8 0.214286 57.6 0.857143 58.4L29.1429 30L0.857143 1.8Z" fill="#00D6FF"/>
<path d="M32.1429 33L4.92857 60C5.35714 60 5.78571 59.8 6.21429 59.6L41.1429 42L32.1429 33Z" fill="#FF3A44"/>
</svg>
